<svg width="168" height="49" viewBox="0 0 168 49" fill="none" xmlns="http://www.w3.org/2000/svg">
<rect y="0.875" width="35.71" height="48" fill="black"/>
<path d="M0 0.875V48.875H35.71V0.875H0ZM18.09 16.765H13.95L10 10.235L6.05 16.765H1.91L8.33 6.265V3.585H11.65V6.265L18.08 16.765H18.09ZM14.85 22.465V25.395H11.61V30.715H8.37V18.095H11.61V22.465H14.85ZM10 32.135C13.14 32.135 14.88 34.145 14.88 34.145C17.03 36.295 16.89 38.995 16.89 38.995C16.89 42.005 14.87 43.865 14.87 43.865C12.74 45.995 10 45.875 10 45.875C6.91 45.875 5.15 43.865 5.15 43.865C2.94 41.655 3.13 38.995 3.13 38.995C3.13 35.875 5.14 34.145 5.14 34.145C7.37 31.915 9.99 32.125 9.99 32.125L10 32.135ZM20.92 28.035V25.105H24.16V23.505H20.92V20.575H24.16V18.115H27.4V30.735H24.16V28.045H20.92V28.035ZM19.64 16.615V4.195H31.94V16.595H19.64V16.615ZM20.9 34.155C23.13 31.925 25.75 32.135 25.75 32.135C28.89 32.135 30.63 34.145 30.63 34.145C32.78 36.295 32.64 38.995 32.64 38.995C32.64 42.005 30.62 43.865 30.62 43.865C28.49 45.995 25.75 45.875 25.75 45.875C22.66 45.875 20.9 43.865 20.9 43.865C18.69 41.655 18.88 38.995 18.88 38.995C18.88 35.875 20.89 34.145 20.89 34.145L20.9 34.155Z" fill="white"/>
<path d="M25.7396 42.5953C25.7396 42.5953 27.1796 42.6553 28.2896 41.5453C28.2896 41.5453 29.3396 40.5753 29.3396 38.9953C29.3396 38.9953 29.3596 37.5253 28.2896 36.4653C28.2896 36.4653 27.3696 35.4053 25.7396 35.4053C25.7396 35.4053 24.3796 35.2453 23.1996 36.4653C23.1996 36.4653 22.1496 37.3953 22.1496 39.0053C22.1496 39.0053 22.0496 40.4053 23.2096 41.5653C23.2096 41.5653 24.1396 42.6053 25.7496 42.6053L25.7396 42.5953Z" fill="white"/>
<path d="M28.7304 7.13477H22.9004V13.6648H28.7304V7.13477Z" fill="white"/>
<path d="M9.98962 42.5953C9.98962 42.5953 11.4296 42.6553 12.5396 41.5453C12.5396 41.5453 13.5896 40.5753 13.5896 38.9953C13.5896 38.9953 13.6096 37.5253 12.5396 36.4653C12.5396 36.4653 11.6196 35.4053 9.98962 35.4053C9.98962 35.4053 8.62962 35.2453 7.44962 36.4653C7.44962 36.4653 6.39962 37.3953 6.39962 39.0053C6.39962 39.0053 6.29962 40.4053 7.45962 41.5653C7.45962 41.5653 8.38962 42.6053 9.99962 42.6053L9.98962 42.5953Z" fill="white"/>
<path d="M58.89 23.986L58.9 24.006H58.93H63.74H63.81L63.78 23.936L56.89 11.806L56.9 9.20602V9.16602H56.86H53.1H53.06V9.20602V11.856L46.28 23.936L46.25 24.006H46.32H51.13H51.16L51.17 23.986L55.03 16.406L58.89 23.986Z" fill="white"/>
<path d="M90.4797 9.16602V12.026H86.7197V15.516H90.4797V17.286H86.7697H86.7197V17.336V20.736V20.776H86.7697H90.4797V24.046H94.3297V9.16602H90.4797Z" fill="white"/>
<path d="M67.9201 14.2868V9.2568V9.2168H67.8801H64.1201H64.0801V9.2568V23.9468V23.9868H64.1201H67.8801H67.9201V23.9468V17.7768H71.6401H71.6801V17.7368V14.3268V14.2868H71.6401H67.9201Z" fill="white"/>
<path d="M143.04 14.236V9.21602V9.16602H143H139.24H139.19V9.21602V23.926V23.966H139.24H143H143.04V23.926V17.726H146.76H146.8V17.686V14.276V14.236H146.76H143.04Z" fill="white"/>
<path d="M115.74 9.14648H115.69V9.18648V14.6665H113.02V9.18648V9.14648H112.98H109.23H109.19V9.18648V40.4665V40.5165H109.23H112.98H113.02V40.4665V18.1965H115.69V40.4765V40.5165H115.74H119.48H119.53V40.4765V9.18648V9.14648H119.48H115.74Z" fill="white"/>
<path d="M98.2001 9.5957H98.1602V9.6357V23.8057V23.8457H98.2001H108.11H108.15V23.8057V20.4457V20.4057H108.11H102.09V13.0857H108.14H108.19V13.0457V9.6357V9.5957H108.14H98.2001Z" fill="white"/>
<path d="M142.98 26.375H139.24H125.28H125.24V26.415V29.795V29.845H125.28H139.2V40.455V40.505H139.24H143.01H143.05V40.455V26.415V26.375H143.01H142.98Z" fill="white"/>
<path d="M85.6905 23.8759V9.58594H73.2305V23.8759H85.6905ZM81.8905 13.0759V20.3859H77.1105V13.0759H81.8905Z" fill="white"/>
<path d="M67.9902 33.1155C67.9902 30.9255 67.2102 29.0255 65.7002 27.4655C64.1802 25.9055 62.2902 25.1055 60.0702 25.1055C57.8502 25.1055 56.0102 25.8955 54.4902 27.4655C52.9702 29.0255 52.2002 30.9455 52.2002 33.1555C52.2002 35.3655 52.9702 37.2955 54.4902 38.8655C56.0102 40.4455 57.8902 41.2455 60.0702 41.2455C62.2502 41.2455 64.1802 40.4455 65.7202 38.8655C67.2502 37.2855 68.0302 35.3655 68.0302 33.1555V33.1155H67.9802H67.9902ZM60.1202 37.2255C59.0202 37.2255 58.0702 36.8255 57.3002 36.0255C56.5302 35.2255 56.1402 34.2655 56.1402 33.1555C56.1702 32.0255 56.5702 31.0555 57.3402 30.2655C58.1102 29.4855 59.0602 29.0855 60.1602 29.0855C61.2602 29.0855 62.2002 29.4955 62.9602 30.3055C63.7102 31.1155 64.0902 32.0755 64.1002 33.1755C64.1002 34.2955 63.7102 35.2655 62.9602 36.0455C62.2102 36.8255 61.2502 37.2255 60.1202 37.2255Z" fill="white"/>
<path d="M94.33 33.1057C94.32 30.9157 93.55 29.0157 92.04 27.4557C90.52 25.8957 88.63 25.0957 86.41 25.0957C84.19 25.0957 82.35 25.8857 80.83 27.4557C79.31 29.0157 78.54 30.9357 78.54 33.1457C78.54 35.3557 79.31 37.2857 80.83 38.8557C82.35 40.4357 84.23 41.2357 86.41 41.2357C88.59 41.2357 90.52 40.4357 92.06 38.8557C93.59 37.2757 94.37 35.3557 94.37 33.1457V33.1057H94.32H94.33ZM86.46 37.2157C85.36 37.2157 84.41 36.8157 83.64 36.0157C82.87 35.2157 82.48 34.2557 82.48 33.1457C82.51 32.0157 82.91 31.0457 83.68 30.2557C84.45 29.4757 85.4 29.0757 86.5 29.0757C87.6 29.0757 88.54 29.4857 89.3 30.2957C90.05 31.1057 90.43 32.0657 90.44 33.1657C90.44 34.2857 90.05 35.2557 89.3 36.0357C88.55 36.8157 87.59 37.2157 86.46 37.2157Z" fill="white"/>
<path d="M130.43 23.8659C133.93 23.8659 136.78 21.0159 136.78 17.5159C136.78 16.3959 136.48 15.3059 135.93 14.3459H138.1V10.8159H132.28V8.33594H128.45V10.8159H122.73V14.3459H124.94C124.38 15.3059 124.09 16.4059 124.09 17.5159C124.09 21.0159 126.94 23.8659 130.44 23.8659H130.43ZM130.43 20.2359C128.93 20.2359 127.71 19.0159 127.71 17.5159C127.71 16.0159 128.93 14.7959 130.43 14.7959C131.93 14.7959 133.15 16.0159 133.15 17.5159C133.15 19.0159 131.93 20.2359 130.43 20.2359Z" fill="white"/>
<path d="M162.16 23.9053V23.9553H162.21H165.97H166.02V23.9053V9.98531V9.94531H165.97H165.95H147.7H147.65V9.98531V13.3753V13.4153H147.7H162.16V23.9053Z" fill="white"/>
<path d="M167.58 36.6961H160.55V24.0461V23.9961H160.51H156.74H156.7V24.0461V36.6961H154.9V24.0461V23.9961H154.86H151.09H151.05V24.0461V36.6961H148.04H147.99V36.7361V40.1261V40.1661H148.04H167.58H167.62V40.1261V36.7361V36.6961H167.58Z" fill="white"/>
</svg>
