<svg width="84" height="24" viewBox="0 0 84 24" fill="none" xmlns="http://www.w3.org/2000/svg">
<path d="M0 0V24H17.855V0H0ZM9.045 7.945H6.975L5 4.68L3.025 7.945H0.955L4.165 2.695V1.355H5.825V2.695L9.04 7.945H9.045ZM7.425 10.795V12.26H5.805V14.92H4.185V8.61H5.805V10.795H7.425ZM5 15.63C6.57 15.63 7.44 16.635 7.44 16.635C8.515 17.71 8.445 19.06 8.445 19.06C8.445 20.565 7.435 21.495 7.435 21.495C6.37 22.56 5 22.5 5 22.5C3.455 22.5 2.575 21.495 2.575 21.495C1.47 20.39 1.565 19.06 1.565 19.06C1.565 17.5 2.57 16.635 2.57 16.635C3.685 15.52 4.995 15.625 4.995 15.625L5 15.63ZM10.46 13.58V12.115H12.08V11.315H10.46V9.85H12.08V8.62H13.7V14.93H12.08V13.585H10.46V13.58ZM9.82 7.87V1.66H15.97V7.86H9.82V7.87ZM10.45 16.64C11.565 15.525 12.875 15.63 12.875 15.63C14.445 15.63 15.315 16.635 15.315 16.635C16.39 17.71 16.32 19.06 16.32 19.06C16.32 20.565 15.31 21.495 15.31 21.495C14.245 22.56 12.875 22.5 12.875 22.5C11.33 22.5 10.45 21.495 10.45 21.495C9.345 20.39 9.44 19.06 9.44 19.06C9.44 17.5 10.445 16.635 10.445 16.635L10.45 16.64Z" fill="white"/>
<path d="M12.8703 20.86C12.8703 20.86 13.5903 20.89 14.1453 20.335C14.1453 20.335 14.6703 19.85 14.6703 19.06C14.6703 19.06 14.6803 18.325 14.1453 17.795C14.1453 17.795 13.6853 17.265 12.8703 17.265C12.8703 17.265 12.1903 17.185 11.6003 17.795C11.6003 17.795 11.0753 18.26 11.0753 19.065C11.0753 19.065 11.0253 19.765 11.6053 20.345C11.6053 20.345 12.0703 20.865 12.8753 20.865L12.8703 20.86Z" fill="white"/>
<path d="M14.3652 3.13H11.4502V6.395H14.3652V3.13Z" fill="white"/>
<path d="M4.9953 20.86C4.9953 20.86 5.7153 20.89 6.2703 20.335C6.2703 20.335 6.7953 19.85 6.7953 19.06C6.7953 19.06 6.8053 18.325 6.2703 17.795C6.2703 17.795 5.8103 17.265 4.9953 17.265C4.9953 17.265 4.3153 17.185 3.7253 17.795C3.7253 17.795 3.2003 18.26 3.2003 19.065C3.2003 19.065 3.1503 19.765 3.7303 20.345C3.7303 20.345 4.1953 20.865 5.0003 20.865L4.9953 20.86Z" fill="white"/>
<path d="M29.445 11.555L29.45 11.565H29.465H31.87H31.905L31.89 11.53L28.445 5.46499L28.45 4.16499V4.14499H28.43H26.55H26.53V4.16499V5.48999L23.14 11.53L23.125 11.565H23.16H25.565H25.58L25.585 11.555L27.515 7.76499L29.445 11.555Z" fill="white"/>
<path d="M45.2404 4.14499V5.57499H43.3604V7.31999H45.2404V8.20499H43.3853H43.3604V8.22999V9.92999V9.94999H43.3853H45.2404V11.585H47.1654V4.14499H45.2404Z" fill="white"/>
<path d="M33.96 6.70498V4.18998V4.16998H33.94H32.06H32.04V4.18998V11.535V11.555H32.06H33.94H33.96V11.535V8.44998H35.82H35.84V8.42998V6.72498V6.70498H35.82H33.96Z" fill="white"/>
<path d="M71.5197 6.67999V4.16999V4.14499H71.4997H69.6197H69.5947V4.16999V11.525V11.545H69.6197H71.4997H71.5197V11.525V8.42499H73.3797H73.3997V8.40499V6.69999V6.67999H73.3797H71.5197Z" fill="white"/>
<path d="M57.8697 4.13498H57.8447V4.15498V6.89498H56.5097V4.15498V4.13498H56.4897H54.6147H54.5947V4.15498V19.795V19.82H54.6147H56.4897H56.5097V19.795V8.65998H57.8447V19.8V19.82H57.8697H59.7397H59.7647V19.8V4.15498V4.13498H59.7397H57.8697Z" fill="white"/>
<path d="M49.1001 4.35999H49.0801V4.37999V11.465V11.485H49.1001H54.0551H54.0751V11.465V9.78498V9.76499H54.0551H51.0451V6.10499H54.0701H54.0951V6.08499V4.37999V4.35999H54.0701H49.1001Z" fill="white"/>
<path d="M71.4901 12.75H69.6201H62.6401H62.6201V12.77V14.46V14.485H62.6401H69.6001V19.79V19.815H69.6201H71.5051H71.5251V19.79V12.77V12.75H71.5051H71.4901Z" fill="white"/>
<path d="M42.8452 11.5V4.35498H36.6152V11.5H42.8452ZM40.9452 6.09998V9.75498H38.5552V6.09998H40.9452Z" fill="white"/>
<path d="M33.9946 16.12C33.9946 15.025 33.6046 14.075 32.8496 13.295C32.0896 12.515 31.1446 12.115 30.0346 12.115C28.9246 12.115 28.0046 12.51 27.2446 13.295C26.4846 14.075 26.0996 15.035 26.0996 16.14C26.0996 17.245 26.4846 18.21 27.2446 18.995C28.0046 19.785 28.9446 20.185 30.0346 20.185C31.1246 20.185 32.0896 19.785 32.8596 18.995C33.6246 18.205 34.0146 17.245 34.0146 16.14V16.12H33.9896H33.9946ZM30.0596 18.175C29.5096 18.175 29.0346 17.975 28.6496 17.575C28.2646 17.175 28.0696 16.695 28.0696 16.14C28.0846 15.575 28.2846 15.09 28.6696 14.695C29.0546 14.305 29.5296 14.105 30.0796 14.105C30.6296 14.105 31.0996 14.31 31.4796 14.715C31.8546 15.12 32.0446 15.6 32.0496 16.15C32.0496 16.71 31.8546 17.195 31.4796 17.585C31.1046 17.975 30.6246 18.175 30.0596 18.175Z" fill="white"/>
<path d="M47.1645 16.115C47.1595 15.02 46.7745 14.07 46.0195 13.29C45.2595 12.51 44.3145 12.11 43.2045 12.11C42.0945 12.11 41.1745 12.505 40.4145 13.29C39.6545 14.07 39.2695 15.03 39.2695 16.135C39.2695 17.24 39.6545 18.205 40.4145 18.99C41.1745 19.78 42.1145 20.18 43.2045 20.18C44.2945 20.18 45.2595 19.78 46.0295 18.99C46.7945 18.2 47.1845 17.24 47.1845 16.135V16.115H47.1595H47.1645ZM43.2295 18.17C42.6795 18.17 42.2045 17.97 41.8195 17.57C41.4345 17.17 41.2395 16.69 41.2395 16.135C41.2545 15.57 41.4545 15.085 41.8395 14.69C42.2245 14.3 42.6995 14.1 43.2495 14.1C43.7995 14.1 44.2695 14.305 44.6495 14.71C45.0245 15.115 45.2145 15.595 45.2195 16.145C45.2195 16.705 45.0245 17.19 44.6495 17.58C44.2745 17.97 43.7945 18.17 43.2295 18.17Z" fill="white"/>
<path d="M65.2152 11.495C66.9652 11.495 68.3902 10.07 68.3902 8.31998C68.3902 7.75998 68.2402 7.21498 67.9652 6.73498H69.0502V4.96998H66.1402V3.72998H64.2252V4.96998H61.3652V6.73498H62.4702C62.1902 7.21498 62.0452 7.76498 62.0452 8.31998C62.0452 10.07 63.4702 11.495 65.2202 11.495H65.2152ZM65.2152 9.67998C64.4652 9.67998 63.8552 9.06998 63.8552 8.31998C63.8552 7.56998 64.4652 6.95998 65.2152 6.95998C65.9652 6.95998 66.5752 7.56998 66.5752 8.31998C66.5752 9.06998 65.9652 9.67998 65.2152 9.67998Z" fill="white"/>
<path d="M81.0802 11.515V11.54H81.1052H82.9852H83.0102V11.515V4.55497V4.53497H82.9852H82.9752H73.8502H73.8252V4.55497V6.24997V6.26997H73.8502H81.0802V11.515Z" fill="white"/>
<path d="M83.7901 17.91H80.2751V11.585V11.56H80.2551H78.3701H78.3501V11.585V17.91H77.4501V11.585V11.56H77.4301H75.5451H75.5251V11.585V17.91H74.0201H73.9951V17.93V19.625V19.645H74.0201H83.7901H83.8101V19.625V17.93V17.91H83.7901Z" fill="white"/>
</svg>
